<?xml version="1.0" encoding="utf-8"?>
<svg xmlns="http://www.w3.org/2000/svg" xmlns:xlink="http://www.w3.org/1999/xlink" version="1.1" width="37" height="37" viewbox="0 0 17 17">
<defs>
	<filter id="blur" width="200%" height="200%">
		<feComponentTransfer>
			<feFuncA type="linear" slope="0.05"/>
		</feComponentTransfer>
		<feMerge> 
			<feMergeNode/>
			<feMergeNode in="SourceGraphic"/> 
		</feMerge>
	</filter>
	<style type="text/css"><![CDATA[
/* CLOUDS */
@keyframes am-weather-cloud-1 {
	0% {
		-webkit-transform: translate(-2px,0px);
		-moz-transform: translate(-2px,0px);
		-ms-transform: translate(-2px,0px);
		transform: translate(-2px,0px);
	}
	25% {
		-webkit-transform: translate(8px,0px);
		-moz-transform: translate(8px,0px);
		-ms-transform: translate(8px,0px);
		transform: translate(8px,0px);
	}
	50% {
		-webkit-transform: translate(-2px,0px);
		-moz-transform: translate(-2px,0px);
		-ms-transform: translate(-2px,0px);
		transform: translate(-2px,0px);
	}
	100% {
		-webkit-transform: translate(-2px,0px);
		-moz-transform: translate(-2px,0px);
		-ms-transform: translate(-2px,0px);
		transform: translate(-2px,0px);
	}
}
.am-weather-cloud-1 {
	-webkit-animation-name: am-weather-cloud-1;
	-moz-animation-name: am-weather-cloud-1;
	animation-name: am-weather-cloud-1;
	-webkit-animation-duration: 10s;
	-moz-animation-duration: 10s;
	animation-duration: 10s;
	-webkit-animation-timing-function: linear;
	-moz-animation-timing-function: linear;
	animation-timing-function: linear;
	-webkit-animation-iteration-count: infinite;
	-moz-animation-iteration-count: infinite;
	animation-iteration-count: infinite;
}
@keyframes am-weather-cloud-2 {
	0% {
		-webkit-transform: translate(8px,0px);
		-moz-transform: translate(8px,0px);
		-ms-transform: translate(8px,0px);
		transform: translate(8px,0px);
	}
	12% {
		-webkit-transform: translate(-2px,0px);
		-moz-transform: translate(-2px,0px);
		-ms-transform: translate(-2px,0px);
		transform: translate(-2px,0px);
	}
	50% {
		-webkit-transform: translate(8px,0px);
		-moz-transform: translate(8px,0px);
		-ms-transform: translate(8px,0px);
		transform: translate(8px,0px);
	}
	100% {
		-webkit-transform: translate(8px,0px);
		-moz-transform: translate(8px,0px);
		-ms-transform: translate(8px,0px);
		transform: translate(8px,0px);
	}
}
.am-weather-cloud-2 {
	-webkit-animation-name: am-weather-cloud-2;
	-moz-animation-name: am-weather-cloud-2;
	animation-name: am-weather-cloud-2;
	-webkit-animation-duration: 10s;
	-moz-animation-duration: 10s;
	animation-duration: 10s;
	-webkit-animation-timing-function: linear;
	-moz-animation-timing-function: linear;
	animation-timing-function: linear;
	-webkit-animation-iteration-count: infinite;
	-moz-animation-iteration-count: infinite;
	animation-iteration-count: infinite;
}


@keyframes am-weather-cloud-3 {
	0% {
		-webkit-transform: translate(0px,0px);
		-moz-transform: translate(0px,0px);
		-ms-transform: translate(0px,0px);
		transform: translate(0px,0px);
	}
	25% {
		-webkit-transform: translate(2px,0px);
		-moz-transform: translate(2px,0px);
		-ms-transform: translate(2px,0px);
		transform: translate(2px,0px);
	}
	50% {
		-webkit-transform: translate(0px,0px);
		-moz-transform: translate(0px,0px);
		-ms-transform: translate(0px,0px);
		transform: translate(0px,0px);
	}

}
.am-weather-cloud-3 {
	-webkit-animation-name: am-weather-cloud-3;
	-moz-animation-name: am-weather-cloud-3;
	animation-name: am-weather-cloud-3;
	-webkit-animation-duration: 10s;
	-moz-animation-duration: 10s;
	animation-duration: 10s;
	-webkit-animation-timing-function: linear;
	-moz-animation-timing-function: linear;
	animation-timing-function: linear;
	-webkit-animation-iteration-count: infinite;
	-moz-animation-iteration-count: infinite;
	animation-iteration-count: infinite;
}
/* EASING */
.am-weather-easing-ease-in-out {
	-webkit-animation-timing-function: ease-in-out;
	-moz-animation-timing-function: ease-in-out;
	-ms-animation-timing-function: ease-in-out;
	animation-timing-function: ease-in-out;
}]]></style>
	</defs>
	<g filter="url(#blur)" id="cloudy">
		<g transform="translate(6,0)">
			<g class="am-weather-cloud-1 am-weather-easing-ease-in-out"> 
				<path d="M41.35,22.94c-2.77,0.74-11.07,2.12-16.23-0.37c-8.44-4.08-17.44-0.21-17.82-0.05
		c-1.51,0.67-2.2,2.43-1.54,3.94c0.66,1.52,2.43,2.21,3.94,1.56c0.07-0.03,6.89-2.91,12.8-0.05c3.19,1.54,6.91,2.02,10.3,2.02
		c5.31,0,9.8-1.18,10.1-1.26c1.6-0.43,2.55-2.08,2.12-3.68C44.6,23.46,42.95,22.51,41.35,22.94z" fill="#b7b7b7" transform="translate(0,24), scale(0.37)"/>
			</g>
			<g class="am-weather-cloud-2 am-weather-easing-ease-in-out"> 
				<path d="M47.76,14.87c-0.65-1.52-2.41-2.24-3.93-1.59c-0.09,0.04-9.6,3.91-16.38,0.63
		c-9.12-4.41-23.65-0.36-24.27-0.19c-1.59,0.45-2.52,2.11-2.06,3.7c0.45,1.59,2.11,2.52,3.7,2.07c3.58-1.01,14.15-3.02,20.01-0.19
		c2.95,1.43,6.13,1.92,9.11,1.92c6.41,0,11.9-2.29,12.23-2.43C47.7,18.15,48.41,16.39,47.76,14.87z" fill="#d4d4d4" transform="translate(0,23), scale(0.37)"/>
			</g>
			<g class="am-weather-cloud-3 am-weather-easing-ease-in-out">
				<path d="M47.7,35.4     c0-4.6-3.7-8.2-8.2-8.2c-1,0-1.9,0.2-2.8,0.5c-0.3-3.4-3.1-6.2-6.6-6.2c-3.7,0-6.7,3-6.7,6.7c0,0.8,0.2,1.6,0.4,2.3     c-0.3-0.1-0.7-0.1-1-0.1c-3.7,0-6.7,3-6.7,6.7c0,3.6,2.9,6.6,6.5,6.7l17.2,0C44.2,43.3,47.7,39.8,47.7,35.4z" fill="#d4d4d4" transform="translate(-20,-18)"/>
			</g>
		</g>
	</g>
</svg> 